<svg width="624" height="373" viewBox="0 0 624 373" fill="none" xmlns="http://www.w3.org/2000/svg">
<g clip-path="url(#clip0_135_70)">
<path d="M75.8509 2.81055L77.0409 26.0005L75.4309 26.0705C74.8209 22.1305 73.8209 18.8805 72.4209 16.3005C71.0209 13.7205 68.9909 11.4505 66.3409 9.48055C64.1509 7.84055 61.5609 6.68055 58.5809 6.00055C55.6009 5.32055 51.6409 4.98055 46.7009 4.98055H30.6909V47.1505H34.8809C39.1209 47.1505 42.3109 46.8705 44.4609 46.3105C46.6109 45.7505 48.3509 44.7405 49.7009 43.2905C51.0109 41.9305 51.9709 40.3305 52.6009 38.4805C53.2309 36.6305 53.7509 33.9005 54.1709 30.2905L55.7809 30.3605L55.5009 68.0305H53.8909C53.4709 64.4205 52.8509 61.5205 52.0409 59.3205C51.2209 57.1205 50.0909 55.2405 48.6509 53.7005C47.2509 52.2005 45.4309 51.1005 43.2009 50.4005C40.9609 49.7005 38.1209 49.3505 34.6709 49.3505H30.6909V65.4405C30.6909 71.8605 30.8509 76.5305 31.1809 79.4605C31.5109 82.3905 32.1309 84.8406 33.0709 86.8006C34.6509 90.1706 37.0609 92.6506 40.3009 94.2206C43.5409 95.7906 47.8209 96.5705 53.1309 96.5705C58.7209 96.5705 63.4109 95.8605 67.1809 94.4305C70.9509 93.0005 74.0309 90.7906 76.4109 87.7906C78.0909 85.7806 79.4509 83.4806 80.5009 80.9006C81.5509 78.3206 82.5209 74.9305 83.4009 70.7105L85.0109 70.7805L84.1009 98.7505H0.710938V97.1305C3.37094 96.9905 5.52094 96.6106 7.18094 96.0106C8.83094 95.4006 10.3109 94.4205 11.6209 93.0605C13.0609 91.5605 14.0509 89.6506 14.5909 87.3306C15.1209 85.0106 15.3909 81.4605 15.3909 76.6805V24.8805C15.3909 20.1005 15.1209 16.5505 14.5909 14.2305C14.0609 11.9105 13.0609 10.0005 11.6209 8.50055C10.3609 7.14055 8.90094 6.16055 7.25094 5.55055C5.59094 4.94055 3.42094 4.57055 0.710938 4.43055V2.81055H75.8509Z" fill="#82B136" stroke="#8CC63F" stroke-width="1.43" stroke-miterlimit="10"/>
<path d="M140.65 85.4592L142.05 85.9492C140.42 90.9192 137.92 94.4992 134.57 96.6992C131.21 98.8992 126.6 99.9992 120.73 99.9992C111.32 99.9992 103.93 97.1892 98.5702 91.5692C93.3502 86.0392 90.7402 79.0592 90.7402 70.6292C90.7402 66.5092 91.4602 62.4292 92.9102 58.3992C94.3502 54.3692 96.3302 50.9292 98.8502 48.0692C101.69 44.7892 105.18 42.2792 109.3 40.5492C113.43 38.8192 117.93 37.9492 122.83 37.9492C129.59 37.9492 134.88 39.4692 138.7 42.5192C141.03 44.3892 142.2 46.4592 142.2 48.6992C142.2 50.1992 141.71 51.4492 140.73 52.4592C139.75 53.4692 138.56 53.9692 137.16 53.9692C134.13 53.9692 131.89 51.7492 130.45 47.2892C129.8 45.2292 129.28 43.8192 128.88 43.0692C128.48 42.3192 127.92 41.6592 127.17 41.0992C125.73 40.0192 123.96 39.4792 121.87 39.4792C119.13 39.4792 116.59 40.2492 114.27 41.7992C112.22 43.1592 110.49 44.8592 109.08 46.8992C107.67 48.9392 106.42 51.4992 105.35 54.5992C103.72 59.3292 102.91 63.9692 102.91 68.5192C102.91 72.6892 103.65 76.7692 105.14 80.7492C106.63 84.7292 108.65 88.0592 111.21 90.7292C115.21 94.9492 119.91 97.0492 125.3 97.0492C129.76 97.0492 133.46 95.6192 136.39 92.7592C137.88 91.2592 139.3 88.8192 140.65 85.4492V85.4592Z" fill="#82B136" stroke="#8CC63F" stroke-width="1.43" stroke-miterlimit="10"/>
<path d="M150.301 69.0909C150.301 61.5009 153.101 54.7309 158.691 48.7809C165.491 41.5709 173.621 37.9609 183.081 37.9609C192.541 37.9609 200.651 41.5709 207.411 48.7809C213.001 54.7809 215.801 61.5709 215.801 69.1609C215.801 76.7509 213.141 83.3309 207.831 89.1909C201.311 96.4109 193.061 100.011 183.091 100.011C173.121 100.011 164.851 96.4009 158.281 89.1909C155.721 86.3809 153.751 83.2409 152.371 79.7709C150.991 76.3009 150.311 72.7409 150.311 69.0909H150.301ZM163.021 68.2809C163.021 76.4209 164.841 83.3309 168.471 88.9909C172.571 95.3109 177.581 98.4709 183.501 98.4709C186.021 98.4709 188.461 97.7709 190.841 96.3609C193.221 94.9609 195.271 92.9909 196.991 90.4609C198.811 87.8409 200.271 84.5509 201.391 80.6009C202.511 76.6509 203.071 72.8209 203.071 69.1209C203.071 65.4209 202.481 61.4109 201.291 57.5009C200.101 53.5909 198.511 50.2409 196.501 47.4309C192.681 42.1409 188.001 39.5009 182.451 39.5009C176.901 39.5009 172.641 42.2809 168.821 47.8509C164.951 53.4209 163.021 60.2309 163.021 68.2809Z" fill="#82B136" stroke="#8CC63F" stroke-width="1.43" stroke-miterlimit="10"/>
<path d="M344.27 4.43055C341.62 4.57055 339.48 4.93055 337.87 5.52055C336.26 6.11055 334.78 7.08055 333.43 8.44055C332.4 9.42055 331.64 10.5105 331.12 11.7105C330.61 12.9005 330.26 14.4205 330.07 16.2405C329.74 18.6805 329.58 21.5605 329.58 24.8805V76.6805C329.58 81.5105 329.86 85.0905 330.42 87.4305C330.98 89.7705 331.98 91.6506 333.43 93.0506C335.99 95.5306 339.6 96.8905 344.26 97.1305V98.7505H299.59V97.1305C302.29 96.9905 304.47 96.6006 306.13 95.9706C307.78 95.3406 309.26 94.3706 310.57 93.0506C312.01 91.5506 313 89.6405 313.54 87.3205C314.07 85.0005 314.34 81.4505 314.34 76.6705V13.8405L278.34 98.7405H276.87L241.1 15.1105V76.6805C241.1 81.5105 241.37 85.0705 241.91 87.3605C242.44 89.6605 243.44 91.5506 244.88 93.0506C246.18 94.4106 247.66 95.3905 249.32 96.0005C250.97 96.6105 253.13 96.9806 255.79 97.1206V98.7405H223.57V97.1206C226.23 96.9806 228.38 96.6005 230.04 96.0005C231.69 95.3905 233.17 94.4106 234.48 93.0506C235.92 91.5506 236.91 89.6405 237.45 87.3205C237.98 85.0005 238.25 81.4505 238.25 76.6705V24.8805C238.25 22.7205 238.18 20.6905 238.04 18.7705C237.81 15.3005 237.27 12.7705 236.43 11.1805C235.26 8.98055 233.67 7.35055 231.64 6.30055C229.61 5.25055 226.92 4.63055 223.57 4.44055V2.82055H253.91L284.18 77.9505L315.54 2.81055H344.27V4.43055Z" fill="#754C24"/>
<path d="M352.031 69.0909C352.031 61.5009 354.831 54.7309 360.421 48.7809C367.221 41.5709 375.351 37.9609 384.811 37.9609C394.271 37.9609 402.381 41.5709 409.141 48.7809C414.731 54.7809 417.531 61.5709 417.531 69.1609C417.531 76.7509 414.871 83.3309 409.561 89.1909C403.041 96.4109 394.791 100.011 384.821 100.011C374.851 100.011 366.581 96.4009 360.011 89.1909C357.451 86.3809 355.481 83.2409 354.101 79.7709C352.721 76.3009 352.041 72.7409 352.041 69.0909H352.031ZM364.751 68.2809C364.751 76.4209 366.571 83.3309 370.201 88.9909C374.301 95.3109 379.311 98.4709 385.231 98.4709C387.751 98.4709 390.191 97.7709 392.571 96.3609C394.951 94.9609 397.001 92.9909 398.721 90.4609C400.541 87.8409 402.001 84.5509 403.121 80.6009C404.241 76.6509 404.801 72.8209 404.801 69.1209C404.801 65.4209 404.211 61.4109 403.021 57.5009C401.831 53.5909 400.241 50.2409 398.231 47.4309C394.411 42.1409 389.731 39.5009 384.181 39.5009C378.631 39.5009 374.371 42.2809 370.551 47.8509C366.681 53.4209 364.751 60.2309 364.751 68.2809Z" fill="#754C24"/>
<path d="M444.222 46.8C446.172 44.37 448.032 42.56 449.802 41.39C453.382 39.1 457.662 37.95 462.642 37.95C469.712 37.95 475.882 40.22 481.142 44.76C487.652 50.33 490.912 58.19 490.912 68.35C490.912 78.51 487.792 86.51 481.542 92.36C476.132 97.46 469.212 100.01 460.782 100.01C456.352 100.01 452.602 99.4 449.532 98.18L445.622 96.57C444.552 96.15 443.592 95.94 442.752 95.94C440.372 95.94 438.282 97.88 436.462 101.77H433.672V19.33C433.672 14.08 432.842 10.32 431.192 8.05C429.532 5.78 426.752 4.64 422.842 4.64V2.95L444.232 0V46.8H444.222ZM444.222 68.07C444.222 73.08 444.502 77.69 445.052 81.9C445.612 86.11 446.332 89.18 447.212 91.1C448.282 93.39 449.872 95.2 451.982 96.51C454.092 97.82 456.492 98.48 459.182 98.48C464.842 98.48 469.522 95.77 473.212 90.34C476.902 84.91 478.752 78.01 478.752 69.63C478.752 65.23 478.152 61.05 476.942 57.1C475.732 53.15 474.022 49.79 471.792 47.03C470.032 44.74 468.082 42.99 465.942 41.8C463.802 40.61 461.622 40.01 459.402 40.01C456.712 40.01 454.202 40.84 451.882 42.5C449.562 44.16 447.842 46.33 446.732 48.99C445.062 52.92 444.222 59.29 444.222 68.08V68.07Z" fill="#754C24"/>
<path d="M497.84 40.4796L517.97 37.9496V78.4296L518.04 83.7496C518.04 86.9296 518.23 89.2496 518.6 90.7196C518.97 92.1896 519.69 93.4196 520.77 94.3996C522.08 95.6596 524.48 96.6196 527.97 97.2696V98.7496H497.07V97.2696C499.86 96.8996 501.87 96.3696 503.08 95.6996C504.29 95.0196 505.27 93.8696 506.02 92.2396C506.53 91.1696 506.89 89.5496 507.1 87.3796C507.31 85.2096 507.42 82.0796 507.42 77.9696V60.6996C507.42 55.8996 507.3 52.5296 507.07 50.5996C506.84 48.6596 506.32 47.0896 505.53 45.8796C504.74 44.5796 503.78 43.6296 502.66 43.0496C501.54 42.4696 499.93 42.1096 497.84 41.9696V40.4896V40.4796ZM512.41 12.7196C510.58 12.7196 509.07 12.1296 507.88 10.9596C506.69 9.78961 506.09 8.30961 506.09 6.52961C506.09 4.74961 506.7 3.32961 507.92 2.13961C509.14 0.949609 510.64 0.349609 512.42 0.349609C514.2 0.349609 515.7 0.949609 516.92 2.13961C518.14 3.33961 518.75 4.79961 518.75 6.52961C518.75 8.25961 518.15 9.78961 516.96 10.9596C515.76 12.1296 514.25 12.7196 512.43 12.7196H512.41Z" fill="#754C24"/>
<path d="M532.51 2.53L552.64 0V78.38L552.71 83.72C552.71 86.91 552.9 89.23 553.27 90.71C553.64 92.18 554.36 93.41 555.44 94.4C556.75 95.67 559.15 96.62 562.64 97.28V98.76H531.74V97.28C534.53 96.91 536.54 96.38 537.75 95.7C538.96 95.02 539.94 93.86 540.69 92.23C541.2 91.15 541.56 89.53 541.77 87.35C541.98 85.17 542.09 82.03 542.09 77.91V22.81C542.09 18.04 541.97 14.67 541.74 12.7C541.51 10.74 540.99 9.14 540.2 7.93C539.41 6.62 538.45 5.68 537.33 5.12C536.21 4.56 534.6 4.21 532.51 4.07V2.52V2.53Z" fill="#754C24"/>
<path d="M581.221 60.5095C581.031 62.8095 580.941 64.4695 580.941 65.4995C580.941 69.5795 581.531 73.5595 582.721 77.4495C583.901 81.3395 585.521 84.5695 587.561 87.1495C589.651 89.7695 592.241 91.8395 595.331 93.3295C598.421 94.8295 601.661 95.5795 605.051 95.5795C607.561 95.5795 609.941 95.1595 612.191 94.3095C614.441 93.4695 616.311 92.2995 617.801 90.7995C619.471 89.1595 620.911 86.5395 622.121 82.9295L623.591 83.4195C622.381 88.8995 619.781 93.0395 615.801 95.8195C611.821 98.6095 606.511 99.9995 599.901 99.9995C594.171 99.9995 589.251 99.0895 585.151 97.2595C581.051 95.4295 577.581 92.6195 574.731 88.8295C570.771 83.5395 568.791 77.0195 568.791 69.2895C568.791 58.7495 572.541 50.4795 580.041 44.4795C585.491 40.1195 591.711 37.9395 598.701 37.9395C602.431 37.9395 605.881 38.6095 609.051 39.9395C612.221 41.2695 614.901 43.2095 617.091 45.7395C620.491 49.6795 622.191 54.5995 622.191 60.4995H581.231L581.221 60.5095ZM611.701 57.7695C611.371 53.0895 610.521 49.4795 609.121 46.9495C607.871 44.6495 606.201 42.8395 604.111 41.4995C602.021 40.1595 599.801 39.4995 597.431 39.4995C593.441 39.4995 589.951 41.2295 586.961 44.6995C583.971 48.1695 582.191 52.5295 581.641 57.7695H611.701Z" fill="#754C24"/>
<path d="M567.221 134.301H66.3809V168.901H567.221V134.301Z" fill="#8C6239"/>
<path d="M532.26 169.261L550.15 372.521H532.26L506.24 200.151L501.24 168.891" fill="#8C6239"/>
<path d="M96.3409 169.261L78.4609 372.521H96.3409L122.361 200.151L127.361 168.891" fill="#8C6239"/>
</g>
<defs>
<clipPath id="clip0_135_70">
<rect width="623.58" height="372.52" fill="white"/>
</clipPath>
</defs>
</svg>
